<?xml version="1.0" encoding="UTF-8" ?>
<!DOCTYPE svg PUBLIC "-//W3C//DTD SVG 1.1//EN" "http://www.w3.org/Graphics/SVG/1.1/DTD/svg11.dtd">
<svg width="626pt" height="626pt" viewBox="0 0 626 626" version="1.1" xmlns="http://www.w3.org/2000/svg">

    <g id="#555555ff">
        <path fill="#555555" opacity="0.06" d=" M 27.41 0.00 L 30.03 0.00 C 21.99 7.94 10.22 6.16 0.00 5.97 L 0.00 3.98 C 9.27 4.02 19.15 5.21 27.41 0.00 Z" />
        <path fill="#555555" opacity="0.06" d=" M 35.82 0.00 L 41.09 0.00 C 39.39 2.72 36.49 4.37 35.82 0.00 Z" />
        <path fill="#555555" opacity="0.06" d=" M 47.61 0.00 L 52.91 0.00 C 51.66 1.06 50.46 2.16 49.25 3.26 C 48.71 2.17 48.16 1.09 47.61 0.00 Z" />
        <path fill="#555555" opacity="0.06" d=" M 59.33 0.00 L 63.34 0.00 C 63.35 2.24 66.38 1.76 66.87 0.00 L 72.41 0.00 C 68.59 33.32 29.69 48.21 0.00 45.00 L 0.00 41.71 C 26.09 45.24 60.14 34.80 68.15 7.05 C 66.27 7.21 63.84 6.72 62.95 8.91 C 59.22 16.25 48.46 14.37 45.22 22.26 C 39.99 30.65 29.71 29.19 21.98 25.80 C 15.23 32.28 4.18 25.36 0.00 35.37 L 0.00 28.31 C 4.33 21.67 12.95 25.36 17.81 19.77 C 25.04 13.66 32.19 30.11 38.54 21.58 C 42.51 10.86 56.46 11.39 59.33 0.00 Z" />
        <path fill="#555555" opacity="0.06" d=" M 152.94 0.00 L 158.28 0.00 C 164.78 7.10 174.06 10.62 183.39 12.06 C 205.84 16.07 229.01 19.36 251.66 14.92 C 264.87 12.43 279.70 10.23 289.39 0.00 L 293.23 0.00 C 292.86 24.63 281.27 49.93 259.72 62.88 C 254.87 65.10 255.38 72.53 249.73 73.78 C 235.87 77.01 221.38 76.12 207.29 75.70 C 199.57 75.16 197.49 66.58 190.86 64.25 C 166.67 53.40 151.97 26.00 152.94 0.00 M 155.82 3.93 C 157.00 8.27 156.83 13.56 159.84 17.05 C 184.99 29.80 214.16 32.93 241.95 30.09 C 258.51 29.66 274.86 24.51 288.85 15.67 C 289.81 11.81 290.38 7.88 291.06 3.97 C 276.98 14.31 258.82 16.29 242.04 19.02 C 213.06 21.42 181.20 19.16 155.82 3.93 M 229.00 33.02 C 205.35 33.46 181.28 29.84 159.82 19.51 C 161.56 24.58 162.87 30.31 166.54 34.32 C 189.88 44.31 215.97 46.72 241.06 44.12 C 255.59 43.65 270.24 40.14 282.90 32.91 C 285.72 28.80 286.76 23.65 288.17 18.90 C 270.75 30.31 249.33 32.69 229.00 33.02 M 167.73 37.16 C 172.14 43.97 176.98 52.72 185.90 53.70 C 211.66 59.60 238.83 59.12 264.47 53.03 C 273.05 51.93 277.08 43.63 281.15 37.06 C 245.39 51.52 203.76 50.09 167.73 37.16 M 185.34 55.94 C 209.14 72.41 244.98 72.73 267.80 54.42 C 241.03 61.91 212.49 60.78 185.34 55.94 M 214.85 72.55 C 227.24 72.03 244.31 77.81 253.40 67.29 C 241.38 73.18 227.77 71.82 214.85 72.55 Z" />
        <path fill="#555555" opacity="0.06" d=" M 160.99 0.00 L 163.21 0.00 C 165.26 0.90 167.25 1.95 169.23 2.99 C 170.89 1.98 172.52 0.94 174.22 0.00 L 184.32 0.00 C 183.56 1.45 182.80 2.90 182.01 4.34 C 184.06 2.60 186.55 1.70 189.26 1.85 C 188.49 1.23 187.73 0.61 186.97 0.00 L 240.85 0.00 C 240.67 2.05 240.49 4.10 240.31 6.16 C 241.16 5.44 242.01 4.72 242.87 4.00 C 242.78 2.66 242.70 1.33 242.61 0.00 L 250.25 0.00 C 249.69 2.28 253.02 2.34 252.02 0.00 L 276.85 0.00 C 277.86 1.11 278.85 2.27 279.83 3.42 C 281.32 2.26 282.80 1.09 284.34 0.00 L 286.41 0.00 C 284.76 4.50 279.65 5.96 275.74 7.90 C 254.66 15.53 231.89 15.65 209.77 15.43 C 209.87 14.93 210.07 13.93 210.17 13.43 C 210.67 12.96 211.68 12.01 212.19 11.53 C 209.79 8.45 206.09 7.38 202.57 9.29 C 202.48 10.19 202.39 11.08 202.31 11.98 C 203.00 11.27 204.37 9.85 205.06 9.15 C 205.77 10.45 206.29 11.84 206.61 13.29 C 206.66 11.74 207.04 10.22 207.17 8.68 C 209.77 10.28 210.31 13.04 207.80 14.87 C 191.53 13.45 174.11 10.38 160.99 0.00 Z" />
        <path fill="#555555" opacity="0.06" d=" M 408.76 0.00 L 412.65 0.00 C 425.08 7.13 438.51 12.65 452.00 17.36 C 461.88 18.87 460.08 6.20 461.08 0.00 L 464.25 0.00 C 464.13 6.14 463.36 12.29 461.27 18.09 C 473.25 15.57 485.82 18.85 497.57 15.46 C 504.43 13.71 506.78 6.36 506.01 0.00 L 507.95 0.00 C 511.03 10.47 503.76 19.64 492.88 18.79 C 477.40 18.67 460.95 24.86 446.18 17.95 C 433.86 11.69 419.36 9.22 408.76 0.00 Z" />
        <path fill="#555555" opacity="0.06" d=" M 570.30 0.00 L 573.72 0.00 C 573.15 7.76 581.77 4.76 585.82 8.21 C 586.70 11.36 585.61 17.20 589.66 18.06 C 594.56 15.08 599.76 9.76 606.02 11.90 C 609.46 14.27 611.18 18.89 615.89 19.32 C 618.88 23.23 618.59 33.71 626.00 29.66 L 626.00 36.43 C 618.85 37.83 614.28 31.71 614.02 25.20 C 609.43 23.67 606.17 18.98 601.35 18.44 C 596.74 21.00 592.83 25.45 586.95 24.43 C 596.72 35.57 611.74 39.98 626.00 41.55 L 626.00 44.30 C 604.40 44.78 582.40 31.72 574.46 11.27 C 571.03 8.30 568.81 4.70 570.30 0.00 M 577.98 10.39 C 578.99 15.36 581.74 19.83 585.79 22.90 C 585.67 17.97 580.17 15.23 581.34 10.29 C 580.21 10.32 579.09 10.36 577.98 10.39 Z" />
        <path fill="#555555" opacity="0.06" d=" M 610.12 0.00 L 615.82 0.00 C 618.94 1.91 622.45 2.88 626.00 3.62 L 626.00 5.24 C 620.25 5.29 614.89 3.03 610.12 0.00 Z" />
        <path fill="#555555" opacity="0.06" d=" M 383.94 4.87 C 387.59 2.76 391.29 0.13 395.77 1.00 C 411.22 9.87 425.23 21.00 439.05 32.22 C 440.35 50.12 419.07 56.00 406.14 62.27 C 397.10 65.00 405.52 76.85 397.68 80.80 C 388.03 87.74 376.31 81.75 367.33 76.70 C 352.96 69.05 336.89 59.20 333.54 41.90 C 330.41 31.56 341.74 19.49 351.78 26.15 C 359.83 15.95 372.95 11.34 383.94 4.87 M 387.49 5.71 C 375.66 12.03 364.66 19.85 353.89 27.79 C 349.48 28.83 343.85 26.65 340.38 30.38 C 338.43 36.17 340.74 42.82 344.84 47.16 C 355.05 57.78 367.73 65.96 381.52 71.09 C 385.22 72.47 390.46 72.46 392.81 68.77 C 393.21 45.32 423.80 47.75 436.26 33.03 C 428.83 25.57 419.43 20.47 411.51 13.55 C 404.08 9.75 396.37 0.67 387.49 5.71 M 406.11 55.26 C 401.98 57.64 394.38 60.51 398.38 66.49 C 400.07 64.33 401.87 62.16 402.71 59.49 C 415.80 57.09 431.53 49.86 436.95 36.86 C 426.58 42.94 417.42 50.89 406.11 55.26 M 340.23 45.76 C 341.91 48.87 343.92 51.79 346.16 54.53 C 346.58 54.53 347.41 54.54 347.83 54.54 C 347.79 55.29 347.76 56.04 347.73 56.78 C 348.46 57.48 349.19 58.18 349.92 58.87 C 351.54 52.82 342.73 50.62 340.23 45.76 M 351.91 57.13 C 352.19 58.08 352.48 59.03 352.79 59.98 C 357.42 64.12 361.84 68.68 368.07 70.52 C 368.48 70.21 369.32 69.57 369.74 69.25 C 372.01 70.48 374.15 71.96 376.05 73.72 C 376.22 73.05 376.39 72.38 376.56 71.72 C 367.59 68.25 359.89 62.36 351.91 57.13 M 381.25 73.60 C 381.20 73.88 381.11 74.45 381.07 74.74 C 386.12 75.47 392.52 76.88 396.42 72.60 C 391.60 74.65 386.31 74.78 381.25 73.60 Z" />
        <path fill="#555555" opacity="0.06" d=" M 593.96 2.83 C 596.68 2.70 599.79 2.80 599.70 6.35 C 597.78 6.30 595.88 6.25 593.98 6.19 C 593.97 5.35 593.96 3.67 593.96 2.83 M 595.47 4.14 C 596.50 7.78 599.13 1.95 595.47 4.14 Z" />
        <path fill="#555555" opacity="0.06" d=" M 432.47 4.04 C 435.45 2.47 432.67 7.37 432.47 4.04 Z" />
        <path fill="#555555" opacity="0.06" d=" M 456.01 14.47 C 456.91 11.23 457.89 8.01 458.90 4.80 C 459.11 8.29 458.70 11.96 456.01 14.47 Z" />
        <path fill="#555555" opacity="0.06" d=" M 611.95 6.85 C 612.73 6.93 614.27 7.10 615.05 7.19 C 615.34 9.44 614.65 11.39 612.07 11.27 C 612.02 9.80 611.98 8.32 611.95 6.85 Z" />
        <path fill="#555555" opacity="0.06" d=" M 465.08 10.56 C 467.13 10.97 469.17 11.39 471.21 11.86 C 469.29 12.62 467.34 13.29 465.34 13.76 C 465.25 12.69 465.16 11.63 465.08 10.56 Z" />
        <path fill="#555555" opacity="0.06" d=" M 392.95 11.30 C 394.13 11.61 395.31 11.94 396.50 12.26 C 395.28 13.27 394.01 14.23 392.69 15.11 C 392.81 13.84 392.89 12.57 392.95 11.30 Z" />
        <path fill="#555555" opacity="0.06" d=" M 29.72 11.50 C 32.42 12.41 34.89 14.21 34.40 17.43 C 30.82 17.60 28.92 14.87 29.72 11.50 Z" />
        <path fill="#555555" opacity="0.06" d=" M 3.78 19.25 C 3.41 15.85 5.50 12.45 9.22 12.64 C 9.79 16.19 8.16 20.55 3.78 19.25 M 7.38 14.17 C 1.51 17.57 9.40 18.42 7.38 14.17 Z" />
        <path fill="#555555" opacity="0.06" d=" M 626.00 15.85 C 623.40 17.36 623.39 12.52 626.00 14.00 L 626.00 15.85 Z" />
        <path fill="#555555" opacity="0.06" d=" M 468.89 40.69 C 480.80 30.88 495.58 21.17 511.28 20.88 C 509.30 36.94 490.38 43.43 476.25 44.87 C 466.37 46.13 463.86 56.73 458.03 63.00 C 448.03 71.44 431.88 77.26 419.90 69.93 C 419.89 69.21 419.86 67.76 419.85 67.04 C 436.21 58.28 452.66 49.69 468.89 40.69 M 480.41 36.10 C 481.70 37.69 482.79 39.43 483.72 41.27 C 494.25 39.05 507.21 33.63 509.20 21.80 C 499.07 24.99 488.14 28.49 480.41 36.10 M 422.45 67.92 C 435.96 75.47 454.20 67.31 461.23 54.31 C 463.92 48.90 469.14 45.85 473.78 42.36 C 473.34 42.10 472.46 41.58 472.02 41.32 C 455.79 50.73 439.21 59.49 422.45 67.92 Z" />
        <path fill="#555555" opacity="0.06" d=" M 383.09 22.31 C 387.02 21.57 382.17 26.36 383.09 22.31 Z" />
        <path fill="#555555" opacity="0.06" d=" M 404.11 25.32 C 407.89 28.20 400.60 28.06 404.11 25.32 Z" />
        <path fill="#555555" opacity="0.06" d=" M 345.37 34.27 C 350.33 34.10 343.53 39.39 345.37 34.27 Z" />
        <path fill="#555555" opacity="0.06" d=" M 422.03 34.53 C 427.07 34.40 420.41 39.58 422.03 34.53 Z" />
        <path fill="#555555" opacity="0.06" d=" M 355.26 35.15 C 359.89 34.19 354.37 39.78 355.26 35.15 Z" />
        <path fill="#555555" opacity="0.06" d=" M 397.15 36.88 C 403.49 39.96 391.77 43.24 397.15 36.88 Z" />
        <path fill="#555555" opacity="0.06" d=" M 483.44 37.08 C 487.42 36.36 482.81 41.08 483.44 37.08 Z" />
        <path fill="#555555" opacity="0.06" d=" M 374.13 43.94 C 378.64 44.54 370.98 47.84 374.13 43.94 Z" />
        <path fill="#555555" opacity="0.06" d=" M 380.33 59.21 C 385.57 59.08 378.15 65.02 380.33 59.21 Z" />
        <path fill="#555555" opacity="0.06" d=" M 462.19 100.06 C 465.60 74.74 492.99 59.59 516.92 61.53 C 537.67 61.39 557.66 77.35 560.78 98.06 C 561.41 111.02 560.87 124.02 560.98 137.00 C 563.05 158.86 538.77 171.68 519.97 172.74 C 509.34 172.57 489.75 173.32 492.93 157.25 C 494.06 156.10 495.20 154.93 496.32 153.75 C 492.35 150.76 491.55 146.22 491.91 141.51 C 483.42 144.28 472.96 155.83 465.54 145.18 C 460.95 130.67 461.91 115.08 462.19 100.06 M 466.85 94.91 C 464.92 101.11 465.50 109.84 471.10 113.68 C 485.48 107.88 498.07 97.76 513.55 94.62 C 509.51 107.27 502.23 118.67 497.29 130.98 C 496.27 134.64 498.62 138.58 502.10 139.86 C 523.62 147.01 548.42 134.38 555.80 113.03 C 562.23 98.04 553.68 80.98 541.00 72.32 C 541.27 73.50 541.56 74.68 541.85 75.86 C 536.84 71.90 532.40 66.31 525.57 65.76 C 526.44 66.53 527.31 67.29 528.20 68.05 C 518.52 67.04 508.77 67.15 499.11 68.20 C 507.34 64.04 516.95 65.62 525.80 66.02 C 503.01 59.11 474.24 71.41 466.85 94.91 M 487.48 110.09 C 490.41 115.07 483.65 118.80 483.46 111.98 C 479.42 113.72 475.30 115.26 471.07 116.45 C 472.14 126.36 475.06 136.04 474.94 146.11 C 480.82 143.81 485.93 139.99 491.75 137.56 C 492.46 135.50 492.88 133.35 493.15 131.20 C 499.51 124.05 499.53 114.83 505.59 107.48 C 504.73 106.12 504.04 104.66 503.64 103.10 C 504.88 102.83 506.13 102.57 507.38 102.30 C 508.39 100.59 509.51 98.94 510.83 97.46 C 503.32 102.12 495.21 105.79 487.48 110.09 M 503.16 145.48 C 500.18 144.16 495.27 144.03 495.01 139.92 C 494.60 140.02 493.77 140.21 493.36 140.31 C 493.79 141.14 494.28 141.94 494.82 142.72 C 494.88 144.35 494.94 145.99 495.03 147.63 C 503.55 152.94 491.51 159.30 496.70 166.28 C 518.43 174.53 547.43 167.64 558.38 145.83 C 557.87 136.92 558.40 127.94 558.99 118.99 C 546.18 135.81 525.33 150.99 503.16 145.48 Z" />
        <path fill="#555555" opacity="0.06" d=" M 84.94 71.06 C 105.27 65.86 126.23 69.03 146.88 68.98 C 148.31 71.87 149.76 74.74 151.27 77.60 C 153.17 77.75 155.08 77.89 156.99 78.03 C 157.69 81.96 157.87 85.97 157.04 89.89 C 155.99 90.28 154.95 90.68 153.90 91.08 C 149.02 115.56 145.64 140.32 140.73 164.80 C 130.42 170.58 118.37 168.86 107.08 169.00 C 101.62 168.45 94.39 166.60 93.82 160.01 C 88.78 137.96 84.53 115.70 80.69 93.41 C 79.22 93.23 77.76 93.05 76.30 92.87 C 74.74 86.74 73.50 78.51 82.42 79.35 C 83.17 76.56 84.00 73.79 84.94 71.06 M 89.88 72.74 C 87.19 72.81 87.34 75.97 86.61 77.83 C 106.95 74.76 127.54 77.24 148.00 76.96 C 147.20 75.00 146.40 73.04 145.61 71.08 C 127.04 73.00 108.41 67.51 89.88 72.74 M 78.97 83.47 C 78.91 85.98 79.14 88.50 79.82 90.92 C 104.66 85.93 129.91 89.48 154.97 88.93 C 155.29 85.98 155.41 83.01 155.31 80.05 C 152.06 79.98 148.81 80.03 145.57 80.31 C 147.42 80.81 149.28 81.26 151.14 81.74 C 140.52 82.10 129.89 81.06 119.28 81.68 C 120.10 80.60 122.12 81.11 123.33 80.63 C 108.71 78.09 93.61 81.67 78.97 83.47 M 84.96 94.82 C 90.59 116.97 92.99 139.92 99.06 161.93 C 111.43 166.31 128.92 168.13 138.87 158.00 C 143.60 136.54 146.69 114.54 150.96 92.91 C 128.97 91.14 106.96 94.12 84.96 94.82 Z" />
        <path fill="#555555" opacity="0.06" d=" M 0.00 102.43 C 16.06 98.21 37.20 106.02 39.98 124.07 C 45.38 148.87 23.70 171.08 0.00 173.65 L 0.00 166.36 C 14.46 164.31 27.09 154.90 32.94 141.49 C 31.55 142.19 30.16 142.91 28.78 143.62 C 36.24 133.61 40.33 118.40 28.32 109.95 C 28.18 111.23 28.05 112.52 27.91 113.81 C 27.19 113.05 26.48 112.29 25.76 111.53 C 26.12 110.70 26.49 109.86 26.85 109.03 C 18.72 104.35 9.20 103.20 0.00 104.34 L 0.00 102.43 Z" />
        <path fill="#555555" opacity="0.06" d=" M 273.11 105.85 C 290.55 104.67 307.75 100.95 324.90 106.06 C 333.23 105.64 342.95 105.56 349.58 111.37 C 357.09 111.56 363.90 114.99 370.44 118.39 C 385.27 126.20 377.19 154.72 359.98 152.08 C 348.46 150.89 337.67 146.22 326.52 143.32 C 327.50 155.93 327.55 170.92 317.31 180.05 C 302.03 196.52 310.01 220.54 307.89 240.61 C 303.73 226.03 305.45 208.40 307.67 193.02 C 309.85 182.26 321.04 176.47 323.41 165.87 C 324.64 158.70 325.22 151.40 324.87 144.13 C 324.14 144.10 322.69 144.04 321.96 144.01 C 321.15 149.86 322.04 159.40 314.98 161.22 C 306.19 158.19 313.99 144.62 308.54 141.23 C 308.14 147.70 311.27 159.01 303.06 161.40 C 294.73 158.77 297.04 147.46 297.55 140.70 C 292.75 145.16 297.90 155.92 291.90 161.05 C 283.19 161.27 284.19 149.56 283.72 143.55 C 280.49 149.83 282.39 158.17 284.06 164.88 C 286.89 175.35 298.97 179.77 301.46 190.40 C 304.85 206.86 302.36 223.60 300.91 240.15 C 300.44 240.14 299.49 240.12 299.02 240.11 C 296.79 218.97 306.00 192.31 287.61 176.29 C 279.07 167.79 279.75 155.10 279.51 144.00 C 264.45 147.34 248.80 155.09 233.28 149.87 C 221.77 145.68 218.47 129.57 227.31 121.14 C 233.80 114.31 243.89 115.16 251.46 110.33 C 258.40 106.21 266.63 111.17 273.11 105.85 M 274.04 109.01 C 265.02 114.60 268.78 126.51 268.58 135.24 C 264.66 128.04 263.94 119.33 262.73 111.26 C 254.29 108.11 244.35 117.09 245.35 125.99 C 244.84 130.02 249.32 134.62 245.30 137.82 C 244.47 136.34 243.65 134.86 242.84 133.38 C 243.61 133.64 245.15 134.17 245.92 134.43 C 241.86 129.00 241.87 122.41 240.67 116.06 C 230.21 119.49 223.64 135.10 232.92 143.03 C 243.54 151.73 257.64 146.74 269.57 144.40 C 286.88 138.34 305.82 134.25 324.00 138.76 C 337.52 141.56 350.14 150.83 364.41 148.43 C 372.90 144.96 379.31 132.80 373.63 124.48 C 368.44 118.65 360.65 116.40 353.51 113.96 C 354.85 119.41 353.06 125.87 348.05 128.82 C 346.97 122.57 350.79 113.02 343.64 109.50 C 338.21 108.77 332.65 108.71 327.21 107.83 C 327.23 112.74 328.99 121.72 323.07 123.16 C 322.66 117.59 324.04 110.73 319.61 106.41 C 314.04 105.65 307.49 104.48 302.35 107.27 C 298.34 113.82 300.65 122.20 298.72 129.41 C 294.73 121.54 294.61 112.85 291.90 104.87 C 285.95 106.21 279.87 107.26 274.04 109.01 M 299.21 140.09 C 299.75 146.23 296.39 156.20 303.66 159.21 C 306.69 153.24 305.97 146.46 305.94 140.01 C 303.69 140.03 301.45 140.06 299.21 140.09 M 312.33 140.40 C 313.04 146.40 308.95 156.04 315.71 159.35 C 319.36 154.10 319.03 147.40 318.78 141.31 C 316.62 141.03 314.47 140.73 312.33 140.40 M 286.14 142.26 C 286.44 147.56 283.86 158.58 291.60 158.85 C 292.97 152.94 292.32 146.89 291.78 140.92 C 289.89 141.36 288.01 141.82 286.14 142.26 Z" />
        <path fill="#555555" opacity="0.06" d=" M 569.96 170.13 C 595.21 153.11 591.86 108.59 626.00 101.79 L 626.00 104.23 C 611.99 106.84 602.27 118.88 598.51 132.04 C 593.35 145.18 585.26 157.03 577.06 168.44 C 579.05 168.54 581.04 168.63 583.04 168.74 C 583.16 170.15 583.29 171.57 583.42 172.99 C 597.71 171.56 611.98 169.54 626.00 166.42 L 626.00 173.22 C 610.53 177.44 593.36 172.42 578.37 179.29 C 574.00 182.41 576.96 190.32 571.02 191.95 C 565.05 193.00 565.66 185.26 562.64 182.16 C 560.27 179.01 554.44 175.90 557.18 171.36 C 560.49 167.46 565.72 170.07 569.96 170.13 M 558.82 173.34 C 560.22 175.59 561.96 177.61 563.99 179.33 C 565.02 178.91 566.05 178.51 567.09 178.12 C 567.96 181.74 568.71 185.39 569.52 189.02 C 574.43 186.44 574.73 178.48 577.03 173.52 C 570.95 173.87 564.66 170.83 558.82 173.34 Z" />
        <path fill="#555555" opacity="0.06" d=" M 0.00 113.39 C 3.43 111.16 7.23 109.54 11.22 108.68 C 9.06 113.29 3.53 112.92 0.00 115.81 L 0.00 113.39 Z" />
        <path fill="#555555" opacity="0.06" d=" M 492.61 112.99 C 493.68 108.35 497.14 110.58 496.45 114.57 C 495.16 114.04 493.89 113.51 492.61 112.99 Z" />
        <path fill="#555555" opacity="0.06" d=" M 619.11 111.05 C 623.81 111.40 615.30 114.79 619.11 111.05 Z" />
        <path fill="#555555" opacity="0.06" d=" M 621.54 117.83 C 623.03 116.33 624.54 114.86 626.00 113.32 L 626.00 116.94 C 624.51 117.27 623.02 117.55 621.54 117.83 Z" />
        <path fill="#555555" opacity="0.06" d=" M 543.73 126.05 C 546.41 122.06 549.52 118.39 552.34 114.50 C 551.08 119.29 547.87 123.38 543.73 126.05 Z" />
        <path fill="#555555" opacity="0.06" d=" M 107.47 136.73 C 102.26 132.38 104.99 122.06 111.55 120.45 C 106.57 124.58 106.42 130.83 107.47 136.73 Z" />
        <path fill="#555555" opacity="0.06" d=" M 114.24 121.24 C 128.69 118.04 130.78 138.74 122.17 146.15 C 110.86 144.47 102.88 128.10 114.24 121.24 M 120.92 143.07 C 120.36 136.04 111.93 130.44 115.49 123.27 C 106.51 128.51 112.49 141.04 120.92 143.07 M 117.81 123.29 C 116.02 130.22 123.71 133.52 124.59 139.86 C 126.28 133.87 126.17 123.18 117.81 123.29 Z" />
        <path fill="#555555" opacity="0.06" d=" M 123.34 120.59 C 127.93 122.42 130.12 127.48 129.99 132.17 C 126.86 129.44 126.50 123.93 123.34 120.59 Z" />
        <path fill="#555555" opacity="0.06" d=" M 479.01 127.23 C 473.83 128.39 471.90 121.21 477.00 119.68 C 480.47 121.02 480.55 124.31 479.01 127.23 Z" />
        <path fill="#555555" opacity="0.06" d=" M 324.31 124.49 C 327.66 128.97 321.69 130.90 324.31 124.49 Z" />
        <path fill="#555555" opacity="0.06" d=" M 487.80 123.72 C 498.54 122.12 487.34 134.25 487.80 123.72 Z" />
        <path fill="#555555" opacity="0.06" d=" M 24.22 125.35 C 27.98 126.15 22.04 129.01 24.22 125.35 Z" />
        <path fill="#555555" opacity="0.06" d=" M 349.29 130.56 C 353.13 131.40 346.99 134.05 349.29 130.56 Z" />
        <path fill="#555555" opacity="0.06" d=" M 485.41 139.19 C 477.63 140.26 484.60 131.80 485.41 139.19 Z" />
        <path fill="#555555" opacity="0.06" d=" M 611.45 139.13 C 617.03 140.34 606.40 144.01 611.45 139.13 Z" />
        <path fill="#555555" opacity="0.06" d=" M 618.24 139.13 C 625.04 138.58 614.92 144.21 618.24 139.13 Z" />
        <path fill="#555555" opacity="0.06" d=" M 13.65 145.29 C 13.40 141.42 17.79 141.91 20.37 141.90 C 19.85 144.97 15.92 144.39 13.65 145.29 Z" />
        <path fill="#555555" opacity="0.06" d=" M 126.08 142.95 C 129.26 145.02 122.33 145.31 126.08 142.95 Z" />
        <path fill="#555555" opacity="0.06" d=" M 612.25 143.08 C 613.61 143.46 614.99 143.81 616.39 144.13 C 614.98 144.81 613.56 145.48 612.14 146.13 C 612.17 145.36 612.22 143.84 612.25 143.08 Z" />
        <path fill="#555555" opacity="0.06" d=" M 114.46 143.83 C 117.56 145.05 121.30 145.36 123.68 147.94 C 120.01 148.72 116.25 147.24 114.46 143.83 Z" />
        <path fill="#555555" opacity="0.06" d=" M 599.36 150.15 C 603.98 149.03 598.26 154.80 599.36 150.15 Z" />
        <path fill="#555555" opacity="0.06" d=" M 404.12 163.13 C 411.70 153.47 427.56 144.51 438.12 154.86 C 449.42 169.45 447.42 189.48 451.96 206.51 C 450.31 206.49 448.67 206.46 447.03 206.43 C 449.61 210.92 454.20 222.31 444.95 221.15 C 432.43 218.41 424.61 205.93 421.18 194.33 C 418.03 203.82 414.67 214.05 407.13 221.00 C 396.30 230.98 373.78 229.03 370.08 212.97 C 367.65 190.12 389.45 176.55 404.12 163.13 M 406.65 163.65 C 394.18 176.43 376.18 188.25 375.64 208.00 C 375.28 222.89 396.81 227.63 405.76 217.49 C 419.27 204.58 413.25 184.52 419.52 168.72 C 420.49 172.78 420.78 176.95 421.02 181.11 C 421.87 180.41 422.72 179.70 423.56 179.00 C 423.68 182.95 426.31 186.30 426.18 190.32 C 425.08 189.19 424.01 188.04 422.92 186.90 C 424.66 193.78 427.69 200.31 431.53 206.26 C 435.32 205.24 436.86 207.86 435.15 211.21 C 438.01 215.30 442.69 218.78 447.94 217.85 C 446.93 207.69 438.68 199.16 439.84 188.38 C 444.36 192.54 442.73 201.17 449.13 203.60 C 444.16 187.98 447.58 168.33 435.08 155.84 C 425.70 148.74 412.91 155.39 406.65 163.65 Z" />
        <path fill="#555555" opacity="0.06" d=" M 20.35 153.28 C 22.75 156.86 14.77 155.59 20.35 153.28 Z" />
        <path fill="#555555" opacity="0.06" d=" M 431.18 156.77 C 437.42 160.17 441.01 167.34 440.89 174.33 C 438.19 168.16 436.14 161.62 431.18 156.77 Z" />
        <path fill="#555555" opacity="0.06" d=" M 601.81 163.54 C 602.49 164.11 603.16 164.69 603.86 165.27 C 605.71 164.76 607.61 164.99 609.46 165.41 C 604.33 168.42 598.12 168.48 592.37 167.91 C 594.25 164.13 599.81 166.81 601.81 163.54 Z" />
        <path fill="#555555" opacity="0.06" d=" M 400.71 172.24 C 403.21 169.10 406.15 166.00 410.15 164.89 C 407.64 168.06 404.32 170.47 400.71 172.24 Z" />
        <path fill="#555555" opacity="0.06" d=" M 124.39 210.46 C 147.61 195.87 173.02 182.52 200.07 177.12 C 220.22 187.82 221.01 212.86 217.98 232.79 C 217.66 233.18 217.02 233.96 216.70 234.35 C 218.48 243.50 213.47 251.85 213.20 260.80 C 183.22 256.51 153.06 252.95 122.70 253.98 C 123.91 239.41 123.01 224.69 124.39 210.46 M 128.11 210.74 C 157.56 210.22 186.73 215.58 216.11 215.18 C 220.19 201.30 210.47 188.01 200.45 179.42 C 174.64 185.33 151.71 199.22 128.11 210.74 M 127.61 213.68 C 130.82 218.96 131.70 224.64 128.50 230.17 C 130.35 236.63 129.56 243.07 129.08 249.71 C 144.83 249.00 160.41 252.14 176.14 252.11 C 172.89 248.77 174.23 242.16 179.69 242.79 C 180.50 243.62 181.32 244.45 182.14 245.27 C 182.38 247.86 181.42 250.20 179.83 252.20 C 189.38 252.85 198.83 254.74 208.41 254.92 C 209.07 248.87 215.82 245.85 214.86 239.21 C 211.51 236.64 211.79 232.34 215.79 230.66 C 216.10 226.87 216.12 223.07 215.92 219.28 C 186.54 217.34 157.14 214.07 127.61 213.68 Z" />
        <path fill="#555555" opacity="0.06" d=" M 380.66 197.57 C 382.43 189.59 388.03 182.45 395.23 178.65 C 389.74 184.48 384.54 190.51 380.66 197.57 Z" />
        <path fill="#555555" opacity="0.06" d=" M 441.22 179.55 C 446.26 182.15 439.50 186.05 441.22 179.55 Z" />
        <path fill="#555555" opacity="0.06" d=" M 162.35 196.29 C 164.63 194.55 167.33 193.51 170.14 193.00 C 167.76 194.54 165.13 195.68 162.35 196.29 Z" />
        <path fill="#555555" opacity="0.06" d=" M 152.74 200.93 C 155.35 198.91 158.36 197.46 161.57 196.68 C 158.92 198.64 155.90 200.02 152.74 200.93 Z" />
        <path fill="#555555" opacity="0.06" d=" M 388.07 211.42 C 388.41 212.39 388.75 213.36 389.10 214.33 C 387.85 214.46 386.61 214.60 385.38 214.74 C 385.27 214.23 385.05 213.21 384.95 212.69 C 385.99 212.27 387.02 211.84 388.07 211.42 Z" />
        <path fill="#555555" opacity="0.06" d=" M 382.33 212.43 C 386.78 212.47 381.19 217.02 382.33 212.43 Z" />
        <path fill="#555555" opacity="0.06" d=" M 135.96 222.11 C 134.93 220.45 134.10 217.48 136.70 216.82 C 136.74 218.61 136.80 220.46 135.96 222.11 Z" />
        <path fill="#555555" opacity="0.06" d=" M 143.92 219.77 C 151.67 217.51 151.43 229.18 143.91 227.24 C 141.40 225.15 141.64 221.93 143.92 219.77 Z" />
        <path fill="#555555" opacity="0.06" d=" M 187.93 223.90 C 188.72 223.92 190.32 223.96 191.11 223.98 C 191.03 225.33 190.95 226.68 190.86 228.03 C 187.85 228.90 185.85 226.44 187.93 223.90 Z" />
        <path fill="#555555" opacity="0.06" d=" M 208.00 229.06 C 206.95 225.81 208.98 222.43 212.35 224.93 C 212.57 227.65 210.89 229.89 208.00 229.06 Z" />
        <path fill="#555555" opacity="0.06" d=" M 161.14 234.92 C 156.04 232.89 159.20 224.19 164.17 227.95 C 164.54 230.80 163.68 233.38 161.14 234.92 Z" />
        <path fill="#555555" opacity="0.06" d=" M 179.20 236.33 C 184.77 236.06 177.11 241.80 179.20 236.33 Z" />
        <path fill="#555555" opacity="0.06" d=" M 201.34 236.31 C 206.15 233.52 207.99 241.16 203.62 242.70 C 199.29 244.98 197.07 237.68 201.34 236.31 Z" />
        <path fill="#555555" opacity="0.06" d=" M 526.39 236.13 C 540.74 231.56 558.44 245.18 555.23 260.94 C 552.04 284.64 529.60 299.76 509.18 308.41 C 491.78 313.79 472.92 317.19 454.83 313.44 C 443.92 310.98 432.13 302.34 432.86 290.00 C 432.01 280.10 439.06 271.01 448.44 268.37 C 462.49 254.05 482.06 248.74 500.28 242.17 C 507.54 235.89 518.54 240.88 526.39 236.13 M 527.85 238.05 C 532.91 244.19 540.91 252.00 537.89 260.54 C 530.23 255.09 528.84 243.00 519.05 240.06 C 513.86 240.17 508.35 240.50 503.69 242.99 C 506.74 251.91 514.80 259.52 513.07 269.74 C 505.12 264.76 503.23 249.75 493.39 245.44 C 490.58 249.67 484.14 248.58 481.92 253.09 C 483.95 263.81 490.41 273.76 492.13 284.43 C 480.01 280.69 478.09 265.87 472.92 256.08 C 466.76 252.19 463.09 261.67 458.09 264.13 C 453.51 274.37 467.97 280.89 466.42 291.33 C 459.63 291.53 455.50 284.72 452.06 279.78 C 450.09 276.81 450.08 268.51 444.77 271.96 C 433.73 277.41 432.45 291.97 439.58 301.12 C 439.82 299.11 440.08 297.11 440.34 295.11 C 444.52 297.70 448.97 299.91 453.80 301.02 C 453.47 301.37 452.81 302.06 452.49 302.41 C 453.44 304.24 453.93 306.24 454.27 308.28 C 460.66 309.88 467.31 310.35 473.88 309.85 C 473.86 309.31 473.82 308.22 473.80 307.68 C 473.08 307.55 472.37 307.43 471.67 307.30 C 471.32 306.85 470.63 305.95 470.29 305.49 C 469.47 305.41 468.66 305.33 467.85 305.26 C 467.38 306.80 467.22 308.68 465.48 309.34 C 465.20 307.73 464.90 306.12 464.59 304.52 C 463.69 305.59 463.32 306.95 462.96 308.28 C 462.56 306.92 462.15 305.56 461.83 304.19 C 469.86 304.17 477.83 303.25 485.81 302.64 C 486.35 304.48 486.91 306.32 487.49 308.15 C 488.44 307.25 489.39 306.36 490.36 305.47 C 491.32 306.06 492.27 306.65 493.25 307.24 C 493.46 304.97 493.53 302.70 493.41 300.44 C 496.50 299.64 499.57 298.74 502.61 297.72 C 503.46 299.48 504.34 301.25 505.23 303.00 C 505.43 302.51 505.81 301.54 506.01 301.06 C 506.49 301.18 507.44 301.43 507.92 301.55 C 507.63 300.66 507.35 299.78 507.08 298.90 C 516.09 303.07 523.58 291.89 531.96 289.47 C 530.91 288.57 529.85 287.68 528.82 286.79 C 529.98 285.78 531.15 284.77 532.33 283.78 C 533.68 284.71 535.06 285.62 536.47 286.49 C 536.39 285.95 536.23 284.87 536.15 284.33 C 541.38 282.33 544.66 277.44 546.99 272.59 C 545.93 271.77 544.90 270.95 543.87 270.12 C 545.12 270.38 546.39 270.65 547.66 270.92 C 548.08 266.62 550.29 262.69 550.09 258.28 C 549.51 258.33 548.34 258.41 547.75 258.45 C 554.46 247.14 539.91 234.06 527.85 238.05 M 531.39 286.36 C 531.36 290.80 535.99 285.19 531.39 286.36 M 445.05 299.37 C 443.18 305.50 448.75 307.54 453.66 308.09 C 452.69 305.04 449.65 304.19 446.80 304.29 C 446.22 302.64 445.65 301.00 445.05 299.37 M 499.80 299.70 C 500.47 301.60 501.02 303.96 503.43 304.28 C 502.95 302.26 502.38 299.74 499.80 299.70 M 494.94 300.86 C 495.28 302.93 495.69 305.31 497.92 306.17 C 497.59 304.10 497.48 301.39 494.94 300.86 M 483.10 303.70 C 483.62 305.76 484.56 307.69 485.97 309.29 C 485.72 307.14 485.72 304.32 483.10 303.70 M 474.41 304.66 C 474.83 306.71 474.19 310.11 477.18 310.15 C 476.68 308.13 475.98 306.10 474.41 304.66 M 477.04 304.86 C 477.44 306.98 478.08 309.19 480.13 310.29 C 479.61 308.25 479.57 305.46 477.04 304.86 M 479.90 304.63 C 480.53 306.54 481.03 308.88 483.38 309.33 C 482.90 307.26 482.39 304.95 479.90 304.63 Z" />
        <path fill="#555555" opacity="0.06" d=" M 29.92 242.66 C 40.94 239.56 53.88 237.47 63.52 245.33 C 72.36 246.69 86.22 250.35 85.65 261.41 C 73.73 271.63 58.61 278.47 43.96 283.93 C 38.40 290.88 30.35 294.55 23.14 299.35 C 16.86 307.22 8.55 313.00 0.00 318.17 L 0.00 315.41 C 8.54 309.26 22.49 303.76 20.98 290.99 C 19.14 275.95 15.27 257.30 0.00 250.39 L 0.00 246.28 C 9.56 243.03 19.88 239.30 29.92 242.66 M 9.01 249.87 C 17.89 261.04 20.26 275.82 25.33 288.68 C 32.82 294.62 40.38 284.78 43.49 278.61 C 44.96 268.33 41.42 257.43 34.53 249.66 C 30.64 249.15 27.40 246.78 23.83 245.36 C 24.47 245.08 25.75 244.52 26.39 244.25 C 20.35 243.39 11.98 243.46 9.01 249.87 M 39.71 247.68 C 37.43 256.79 48.35 262.85 47.64 271.98 C 46.72 280.29 57.04 276.80 61.06 274.04 C 69.01 269.25 64.63 259.07 63.69 251.86 C 61.46 250.23 59.42 248.37 57.39 246.50 C 57.82 246.22 58.67 245.65 59.10 245.37 C 53.09 242.66 44.35 242.47 39.71 247.68 M 66.08 249.82 C 68.53 255.94 70.14 262.45 69.13 269.08 C 73.83 265.94 82.88 264.76 82.95 257.94 C 80.10 251.92 72.42 249.27 66.08 249.82 Z" />
        <path fill="#555555" opacity="0.06" d=" M 133.31 243.71 C 132.78 237.80 143.34 238.86 141.19 244.88 C 139.14 248.70 133.80 248.37 133.31 243.71 Z" />
        <path fill="#555555" opacity="0.06" d=" M 145.32 241.19 C 150.82 239.08 145.10 246.72 145.32 241.19 Z" />
        <path fill="#555555" opacity="0.06" d=" M 588.33 284.40 C 594.82 267.94 605.78 247.18 626.00 246.64 L 626.00 250.80 C 612.80 248.12 603.82 262.49 598.65 272.63 C 595.38 287.09 618.25 289.17 617.81 303.47 C 611.13 297.32 606.82 285.42 596.09 286.15 C 586.27 288.95 579.52 299.99 580.12 310.00 C 581.23 321.53 591.83 328.35 597.26 337.76 C 605.42 341.21 608.83 328.35 615.51 325.37 C 623.71 321.06 620.15 311.57 619.30 304.43 C 622.05 307.95 623.67 312.16 626.00 315.94 L 626.00 317.27 C 615.63 328.53 604.77 339.34 594.07 350.27 C 589.67 353.35 582.94 354.79 578.22 351.78 C 573.53 345.23 576.70 336.51 575.63 329.07 C 571.03 313.46 575.96 295.12 588.33 284.40 M 584.38 328.44 C 576.13 331.96 577.76 344.71 582.57 350.54 C 588.88 353.81 599.65 345.57 594.33 338.57 C 591.60 335.04 589.38 328.45 584.38 328.44 Z" />
        <path fill="#555555" opacity="0.06" d=" M 610.20 259.41 C 613.38 253.95 619.92 251.49 626.00 252.68 L 626.00 253.54 C 619.96 252.87 614.95 256.20 610.20 259.41 Z" />
        <path fill="#555555" opacity="0.06" d=" M 332.25 254.23 C 346.93 251.86 365.13 258.21 369.38 273.82 C 376.07 295.76 359.56 319.28 337.99 324.18 C 320.24 330.40 300.77 325.01 283.10 331.27 C 278.67 333.59 280.37 339.40 277.90 342.89 C 274.67 345.82 269.17 343.87 269.11 339.26 C 268.44 333.02 258.81 330.94 260.99 324.19 C 265.27 317.90 274.60 327.08 277.72 319.79 C 292.43 306.23 296.18 285.44 307.17 269.34 C 312.78 260.89 322.21 255.38 332.25 254.23 M 306.37 275.23 C 300.16 291.49 291.93 307.07 281.18 320.80 C 283.28 320.96 285.40 321.14 287.51 321.35 C 287.38 322.69 287.24 324.02 287.12 325.37 C 304.16 323.97 321.26 321.53 337.73 316.83 C 349.75 313.58 358.87 303.75 363.69 292.58 C 362.27 293.46 360.86 294.38 359.45 295.29 C 366.09 285.71 370.42 271.42 359.15 263.34 C 358.90 263.94 358.39 265.13 358.14 265.73 C 357.81 265.61 357.15 265.36 356.83 265.24 C 356.60 264.82 356.15 263.98 355.93 263.56 C 356.50 263.31 357.63 262.80 358.20 262.55 C 341.51 251.12 314.93 255.88 306.37 275.23 M 263.73 324.98 C 263.40 328.20 266.14 330.18 268.19 332.19 C 274.57 326.76 270.14 344.19 276.25 340.36 C 276.82 335.19 279.95 331.07 281.30 326.22 C 275.45 325.64 269.62 324.66 263.73 324.98 Z" />
        <path fill="#555555" opacity="0.06" d=" M 492.09 256.52 C 496.95 259.09 491.10 262.65 492.09 256.52 Z" />
        <path fill="#555555" opacity="0.06" d=" M 325.71 270.96 C 328.83 265.50 335.09 262.93 340.74 260.90 C 340.16 262.66 339.57 264.43 339.01 266.20 C 333.72 263.36 330.20 269.29 325.71 270.96 Z" />
        <path fill="#555555" opacity="0.06" d=" M 323.43 263.20 C 328.37 264.31 318.19 267.79 323.43 263.20 Z" />
        <path fill="#555555" opacity="0.06" d=" M 463.89 263.71 C 465.09 265.39 466.17 267.18 467.02 269.09 C 464.57 268.42 464.32 265.79 463.89 263.71 Z" />
        <path fill="#555555" opacity="0.06" d=" M 500.26 273.07 C 505.77 274.69 495.83 277.91 500.26 273.07 Z" />
        <path fill="#555555" opacity="0.06" d=" M 354.13 278.23 C 357.44 278.31 352.63 281.27 354.13 278.23 Z" />
        <path fill="#555555" opacity="0.06" d=" M 12.45 285.54 C 13.37 285.10 14.30 284.66 15.22 284.23 C 14.47 285.65 14.25 287.82 12.28 287.99 C 12.33 287.38 12.41 286.15 12.45 285.54 Z" />
        <path fill="#555555" opacity="0.06" d=" M 203.53 288.31 C 218.03 285.15 231.40 294.31 240.22 304.95 C 245.09 311.70 250.73 322.07 244.47 329.63 C 235.32 339.24 233.74 353.33 233.88 365.98 C 233.09 374.65 222.60 374.92 216.00 375.85 C 201.22 375.52 185.54 381.88 171.58 374.43 C 159.50 368.00 144.42 366.15 134.61 356.20 C 129.10 342.18 140.25 328.33 143.48 314.83 C 146.56 307.91 139.37 301.72 141.97 295.02 C 161.30 285.67 183.25 292.96 203.53 288.31 M 221.50 292.72 C 224.28 295.40 227.81 297.56 229.08 301.42 C 230.34 301.17 231.59 300.93 232.84 300.69 C 229.46 297.53 225.99 294.22 221.50 292.72 M 146.75 310.07 C 149.58 321.45 138.52 330.47 139.96 341.93 C 139.58 341.50 138.82 340.63 138.44 340.20 C 135.09 346.86 136.50 355.81 143.39 359.59 C 152.72 364.56 162.86 367.90 172.44 372.38 C 176.69 374.42 183.93 375.79 185.63 369.91 C 186.47 358.69 188.66 347.66 191.65 336.82 C 192.38 329.51 205.66 336.01 204.02 326.94 C 200.89 318.69 191.86 314.09 184.64 309.64 C 185.36 310.85 186.09 312.06 186.81 313.28 C 174.73 306.72 163.48 296.91 149.09 296.31 C 142.21 297.26 146.09 305.67 146.75 310.07 M 244.66 324.39 C 244.67 322.52 244.64 320.65 244.54 318.79 C 243.25 320.66 242.97 322.65 244.66 324.39 M 205.02 334.71 C 189.74 336.41 190.98 356.04 189.46 367.47 C 191.70 367.55 193.94 367.65 196.19 367.74 C 196.37 368.21 196.73 369.16 196.91 369.64 C 194.23 369.78 191.50 369.65 189.25 368.02 C 188.58 370.32 187.87 372.62 187.13 374.90 C 201.22 370.78 220.13 379.70 230.59 366.58 C 232.73 355.42 232.43 343.34 238.14 332.92 C 227.19 335.03 215.99 333.06 205.02 334.71 Z" />
        <path fill="#555555" opacity="0.06" d=" M 596.84 288.00 C 602.46 288.05 607.76 291.97 609.42 297.35 C 605.70 293.61 601.77 290.07 596.84 288.00 Z" />
        <path fill="#555555" opacity="0.06" d=" M 315.41 292.00 C 320.78 293.03 310.82 296.45 315.41 292.00 Z" />
        <path fill="#555555" opacity="0.06" d=" M 316.19 296.64 C 319.13 294.94 321.74 292.60 325.07 291.66 C 322.10 294.09 319.58 297.05 316.36 299.16 C 316.32 298.53 316.23 297.27 316.19 296.64 Z" />
        <path fill="#555555" opacity="0.06" d=" M 343.96 297.88 C 343.42 294.29 348.52 293.13 350.54 295.61 C 348.36 296.42 346.18 297.21 343.96 297.88 Z" />
        <path fill="#555555" opacity="0.06" d=" M 304.34 302.16 C 307.99 304.82 300.52 304.93 304.34 302.16 Z" />
        <path fill="#555555" opacity="0.06" d=" M 349.37 306.10 C 354.60 307.15 344.37 310.53 349.37 306.10 Z" />
        <path fill="#555555" opacity="0.06" d=" M 161.18 309.30 C 166.57 309.10 159.02 314.94 161.18 309.30 Z" />
        <path fill="#555555" opacity="0.06" d=" M 305.39 316.15 C 308.05 316.68 310.68 317.29 313.29 318.01 C 308.05 321.17 301.67 320.84 295.79 320.74 C 298.04 317.42 302.86 316.60 306.19 318.76 C 305.92 317.89 305.65 317.02 305.39 316.15 Z" />
        <path fill="#555555" opacity="0.06" d=" M 175.22 322.37 C 180.70 322.11 173.20 327.95 175.22 322.37 Z" />
        <path fill="#555555" opacity="0.06" d=" M 157.18 324.07 C 161.78 323.07 156.15 328.75 157.18 324.07 Z" />
        <path fill="#555555" opacity="0.06" d=" M 144.15 328.43 C 148.76 327.21 144.46 332.84 144.15 328.43 Z" />
        <path fill="#555555" opacity="0.06" d=" M 151.27 331.15 C 155.83 332.19 146.93 335.40 151.27 331.15 Z" />
        <path fill="#555555" opacity="0.06" d=" M 185.65 352.40 C 186.50 344.15 186.66 328.19 199.16 331.28 C 186.36 330.17 189.59 344.97 185.65 352.40 Z" />
        <path fill="#555555" opacity="0.06" d=" M 582.55 331.78 C 582.70 333.94 582.67 336.10 582.54 338.26 C 581.10 336.25 581.65 333.89 582.55 331.78 Z" />
        <path fill="#555555" opacity="0.06" d=" M 172.18 339.17 C 176.81 338.13 171.16 343.80 172.18 339.17 Z" />
        <path fill="#555555" opacity="0.06" d=" M 397.60 362.60 C 424.51 356.23 451.09 348.43 477.95 341.95 C 484.72 339.82 486.15 348.81 479.58 349.73 C 455.39 357.17 430.64 362.98 406.09 369.25 C 407.71 376.57 397.20 374.33 394.98 379.95 C 388.73 391.49 375.09 393.54 364.18 398.44 C 345.10 406.55 321.77 416.15 301.93 405.28 C 292.29 400.34 290.15 387.50 297.62 379.66 C 314.08 360.38 341.49 359.30 364.59 354.45 C 376.32 351.18 387.85 356.85 397.60 362.60 M 399.67 364.53 C 401.39 365.40 403.15 366.87 405.21 366.35 C 425.03 362.22 444.23 355.59 464.06 351.49 C 469.80 350.17 475.96 349.30 480.75 345.58 C 453.33 347.43 427.01 360.09 399.67 364.53 M 362.48 357.77 C 340.35 362.38 312.81 363.22 298.62 383.55 C 290.99 393.16 301.88 404.39 311.63 405.89 C 331.64 409.26 349.57 397.52 368.00 391.92 C 375.51 389.25 385.04 387.85 388.79 379.79 C 390.87 374.98 395.85 373.13 400.33 371.27 C 392.63 359.32 376.45 353.25 362.48 357.77 Z" />
        <path fill="#555555" opacity="0.06" d=" M 145.18 348.26 C 149.77 347.24 144.23 352.93 145.18 348.26 Z" />
        <path fill="#555555" opacity="0.06" d=" M 172.27 353.38 C 176.13 356.97 167.43 356.82 172.27 353.38 Z" />
        <path fill="#555555" opacity="0.06" d=" M 180.10 354.40 C 183.81 355.36 177.88 358.02 180.10 354.40 Z" />
        <path fill="#555555" opacity="0.06" d=" M 77.56 383.06 C 88.29 370.66 104.91 364.77 119.04 356.97 C 135.94 364.86 150.65 377.40 165.10 389.23 C 165.96 407.05 144.85 412.86 131.84 419.07 C 123.48 421.80 130.91 432.21 124.62 436.56 C 116.87 443.65 105.61 440.16 97.47 435.70 C 82.21 427.51 64.20 418.32 59.79 399.97 C 55.62 389.69 67.09 375.75 77.56 383.06 M 114.09 362.20 C 101.74 368.27 90.80 376.81 79.55 384.62 C 75.15 386.11 67.04 382.59 65.71 389.03 C 64.33 400.85 74.95 408.32 83.12 414.67 C 92.14 420.72 101.81 427.35 112.82 428.62 C 122.69 428.70 116.88 415.70 123.70 411.72 C 135.60 402.85 151.32 400.24 162.29 389.69 C 154.40 382.14 144.83 376.63 136.50 369.59 C 129.47 366.32 122.36 357.46 114.09 362.20 M 130.75 412.79 C 126.78 414.61 120.55 417.86 124.37 423.01 C 134.41 410.41 157.81 411.06 163.08 393.24 C 152.51 400.22 142.44 407.78 130.75 412.79 M 65.96 402.07 C 68.35 406.69 71.59 410.79 75.04 414.66 C 75.56 414.55 76.58 414.32 77.10 414.21 C 82.15 420.71 88.68 426.70 97.31 427.29 C 86.78 419.08 74.40 412.87 65.96 402.07 M 98.33 426.96 C 98.22 427.27 97.99 427.87 97.87 428.17 C 99.25 428.38 100.48 429.00 101.62 429.79 C 102.01 429.58 102.77 429.15 103.15 428.94 C 101.55 428.27 99.94 427.61 98.33 426.96 M 106.71 430.34 C 108.56 432.91 112.41 431.70 115.13 432.34 L 115.23 431.25 C 112.37 431.14 109.54 430.80 106.71 430.34 Z" />
        <path fill="#555555" opacity="0.06" d=" M 158.29 360.21 C 162.97 359.23 157.27 364.79 158.29 360.21 Z" />
        <path fill="#555555" opacity="0.06" d=" M 176.58 371.81 C 182.98 372.04 184.07 365.75 184.78 360.82 C 186.04 365.96 183.23 374.15 176.58 371.81 Z" />
        <path fill="#555555" opacity="0.06" d=" M 348.18 378.61 C 351.35 372.80 351.25 363.49 359.08 361.73 C 367.39 359.43 373.66 366.24 380.24 369.85 C 384.12 372.21 385.81 365.15 389.59 367.50 C 391.98 376.16 382.43 383.33 374.57 379.43 C 369.69 378.75 364.71 370.91 360.24 375.26 C 357.57 381.50 357.46 391.61 348.90 392.72 C 339.03 392.97 338.49 376.51 328.30 379.35 C 323.99 383.41 325.87 390.50 323.34 395.64 C 314.83 403.05 302.25 391.49 305.04 382.26 C 309.53 377.20 312.48 386.59 317.17 385.31 C 313.91 374.89 324.42 365.48 334.53 369.29 C 340.23 370.51 343.53 375.62 348.18 378.61 M 358.74 363.75 C 351.59 366.12 354.41 374.80 350.98 379.79 C 347.71 383.26 343.54 378.18 341.18 375.81 C 336.52 369.69 326.83 369.04 321.29 374.29 C 316.04 378.30 323.45 386.49 317.15 390.07 C 312.04 390.11 311.33 382.26 305.89 382.67 C 305.38 389.21 313.43 396.09 319.53 393.50 C 321.77 386.62 320.28 376.62 327.98 372.77 C 339.73 370.66 340.12 390.90 351.64 387.65 C 357.18 383.02 353.52 373.20 360.27 369.07 C 367.81 365.76 371.96 376.01 379.14 376.64 C 383.84 378.80 386.95 374.32 387.12 370.13 C 386.00 371.10 384.92 372.10 383.84 373.11 C 373.80 374.81 368.79 360.18 358.74 363.75 Z" />
        <path fill="#555555" opacity="0.06" d=" M 119.21 368.60 C 125.35 367.32 117.65 373.71 119.21 368.60 Z" />
        <path fill="#555555" opacity="0.06" d=" M 195.92 396.77 C 206.26 387.00 219.64 381.03 233.17 377.10 C 236.16 375.89 238.41 379.20 236.95 381.83 C 230.98 394.23 217.12 399.93 204.13 401.25 C 197.28 401.52 191.80 406.89 188.99 412.78 C 183.24 424.11 170.07 429.23 158.03 430.03 C 153.32 430.26 146.64 429.55 145.33 424.01 C 162.21 414.96 179.23 406.15 195.92 396.77 M 206.18 393.12 C 207.32 394.31 208.45 395.53 209.55 396.78 C 207.93 397.06 206.32 397.36 204.71 397.66 C 216.96 398.38 232.20 391.68 235.27 378.78 C 224.91 381.29 213.91 385.42 206.18 393.12 M 198.56 397.72 C 182.21 407.20 165.57 416.09 148.65 424.47 C 162.01 432.26 180.05 423.97 187.10 411.22 C 189.84 405.89 194.89 402.66 199.55 399.21 C 199.22 398.71 198.88 398.21 198.56 397.72 Z" />
        <path fill="#555555" opacity="0.06" d=" M 0.00 391.57 C 4.89 383.03 15.53 376.76 25.44 379.50 C 34.92 383.83 37.23 395.61 37.05 405.03 C 35.64 425.33 25.94 443.69 18.38 462.22 C 15.29 470.67 6.03 473.22 0.00 478.94 L 0.00 475.99 C 4.74 471.02 12.49 469.17 15.16 462.28 C 22.25 446.19 29.97 430.09 33.54 412.77 C 34.74 402.50 34.91 389.24 25.46 382.65 C 14.59 379.24 5.07 388.08 0.00 396.80 L 0.00 391.57 Z" />
        <path fill="#555555" opacity="0.06" d=" M 109.20 379.24 C 112.53 379.41 107.64 382.23 109.20 379.24 Z" />
        <path fill="#555555" opacity="0.06" d=" M 129.38 382.22 C 134.38 382.08 127.73 387.30 129.38 382.22 Z" />
        <path fill="#555555" opacity="0.06" d=" M 553.89 383.70 C 559.43 379.53 563.29 388.49 559.62 392.43 C 553.59 400.21 546.21 406.90 539.76 414.34 C 548.16 417.91 558.22 421.89 561.73 431.06 C 563.21 458.51 550.64 488.24 525.50 501.47 C 522.02 515.80 504.07 512.00 493.00 513.00 C 482.56 513.42 469.21 514.52 463.75 503.38 C 435.46 492.41 418.91 460.97 421.23 431.45 C 423.94 423.16 432.62 419.09 440.05 415.82 C 469.31 403.93 502.77 401.59 532.88 411.80 C 540.45 402.87 545.43 391.81 553.89 383.70 M 523.94 426.19 C 517.60 425.53 511.26 427.53 507.86 433.25 C 512.50 428.70 519.13 426.28 525.37 427.58 C 527.93 432.08 523.72 436.75 521.21 440.35 C 525.78 437.31 528.27 432.39 528.65 427.00 C 528.96 429.43 529.21 431.88 529.63 434.30 C 525.27 411.95 555.63 405.59 559.05 386.15 C 558.11 385.92 557.17 385.70 556.24 385.48 C 543.83 397.72 537.83 415.22 523.94 426.19 M 434.07 426.10 C 426.39 430.29 431.12 438.37 437.89 440.08 C 444.03 434.15 452.49 433.24 459.69 429.40 C 462.05 426.06 465.44 422.71 469.98 424.01 C 479.87 429.12 490.93 422.35 501.27 425.15 C 511.26 424.91 524.03 426.14 530.02 416.19 C 498.49 409.14 462.44 408.84 434.07 426.10 M 536.90 415.91 C 544.11 419.56 552.97 422.99 556.15 431.07 C 558.12 440.76 546.20 444.04 539.20 446.64 C 506.12 454.43 469.53 456.16 437.77 442.39 C 431.05 440.16 425.31 433.16 429.36 426.08 C 420.44 434.02 432.45 444.07 440.53 445.98 C 473.77 455.11 510.11 457.46 543.17 446.21 C 548.54 443.89 555.45 441.88 557.74 435.90 C 558.77 424.37 546.23 418.42 536.90 415.91 M 535.37 417.87 C 531.53 421.57 530.25 426.93 532.12 431.95 C 533.26 431.91 534.40 431.86 535.56 431.82 C 535.80 432.12 536.29 432.73 536.53 433.03 C 538.58 432.98 540.63 432.99 542.69 433.00 C 543.57 433.68 544.46 434.36 545.37 435.03 C 544.44 430.03 539.02 433.70 536.23 430.93 C 543.85 426.82 547.94 434.09 548.26 440.63 C 563.28 432.37 544.83 420.27 535.37 417.87 M 462.73 430.61 C 463.26 431.66 463.79 432.72 464.31 433.79 C 463.29 429.55 466.80 425.66 471.03 428.03 C 471.26 429.98 471.50 431.92 471.74 433.88 C 472.09 433.66 472.79 433.22 473.14 433.00 C 475.71 425.17 464.45 423.43 462.73 430.61 M 510.63 434.82 C 512.72 434.90 514.81 434.96 516.91 435.00 C 517.96 436.10 519.01 437.22 520.08 438.33 C 522.07 436.19 523.87 433.67 523.60 430.59 C 519.03 429.43 512.85 430.01 510.63 434.82 M 501.22 440.97 C 500.77 435.35 507.57 433.83 509.86 438.75 C 509.46 440.21 509.08 441.69 508.72 443.17 C 518.88 436.11 497.36 427.94 501.22 440.97 M 535.18 451.50 C 498.84 460.33 457.88 459.38 424.57 441.26 C 425.19 445.42 426.19 449.51 427.42 453.54 C 452.70 466.39 481.96 470.03 509.94 467.03 C 526.74 466.68 543.41 461.55 557.57 452.49 C 558.48 448.49 558.94 444.42 559.71 440.39 C 553.23 446.98 543.67 448.79 535.18 451.50 M 520.92 468.36 C 489.75 471.99 456.71 470.31 428.16 456.14 C 430.92 462.33 431.68 471.65 439.69 473.18 C 473.35 484.75 511.77 485.84 545.20 473.11 C 553.74 471.40 554.81 462.21 557.06 455.32 C 546.63 463.11 533.56 466.29 520.92 468.36 M 436.07 473.97 C 440.86 480.49 445.24 489.47 454.18 490.56 C 479.85 496.47 506.92 496.05 532.51 490.11 C 541.33 489.05 545.71 480.74 549.85 473.92 C 514.00 488.53 472.17 487.05 436.07 473.97 M 452.70 492.35 C 476.95 509.10 513.27 510.03 536.58 491.24 C 509.41 498.84 480.18 497.93 452.70 492.35 M 483.80 509.54 C 496.16 508.94 513.20 514.72 522.27 504.15 C 510.30 510.12 496.69 508.66 483.80 509.54 Z" />
        <path fill="#555555" opacity="0.06" d=" M 71.37 391.09 C 76.25 390.94 69.64 396.30 71.37 391.09 Z" />
        <path fill="#555555" opacity="0.06" d=" M 148.23 391.04 C 153.65 392.92 144.81 395.39 148.23 391.04 Z" />
        <path fill="#555555" opacity="0.06" d=" M 8.88 400.02 C 10.23 391.18 23.55 389.12 29.02 395.10 C 30.16 400.37 23.30 400.55 19.90 402.12 C 22.95 406.25 29.73 407.68 29.13 413.96 C 30.53 425.22 18.31 429.56 9.64 431.91 C 12.74 437.35 19.91 442.19 17.59 449.25 C 15.06 456.91 6.63 459.13 0.00 461.90 L 0.00 458.77 C 5.51 455.25 15.34 455.27 16.01 447.04 C 18.13 439.52 2.21 436.49 8.74 429.66 C 16.45 427.64 27.41 425.35 27.01 415.04 C 29.36 406.70 14.70 407.97 16.89 400.25 C 20.35 397.74 25.48 399.17 28.69 395.92 C 23.68 391.78 12.28 394.74 12.59 401.78 C 17.38 406.59 25.94 410.82 24.42 418.89 C 20.08 427.69 8.18 421.34 1.78 426.66 C -3.02 434.77 9.93 437.65 10.75 445.03 C 11.99 451.44 4.42 452.72 0.00 454.40 L 0.00 449.71 C 9.20 447.92 5.47 440.10 0.00 436.13 L 0.00 422.71 C 5.72 419.31 14.06 422.93 18.52 417.58 C 21.45 409.62 7.57 407.95 8.88 400.02 Z" />
        <path fill="#555555" opacity="0.06" d=" M 81.42 392.12 C 85.44 391.20 80.62 396.10 81.42 392.12 Z" />
        <path fill="#555555" opacity="0.06" d=" M 610.94 436.13 C 613.41 420.48 616.59 404.22 626.00 391.08 L 626.00 398.17 C 618.09 414.20 617.79 432.54 612.31 449.37 C 608.09 459.17 618.40 467.64 614.39 477.47 C 618.25 477.00 622.15 476.76 626.00 476.12 L 626.00 477.84 C 624.84 478.96 623.40 479.84 622.51 481.22 C 613.18 505.83 606.54 531.46 597.24 556.04 C 594.62 562.27 588.03 557.35 590.69 552.06 C 597.26 529.21 605.02 506.62 612.79 484.11 C 611.76 483.02 610.73 481.94 609.72 480.86 C 610.62 476.11 611.81 471.02 609.30 466.54 C 604.44 456.67 609.52 446.15 610.94 436.13 M 615.64 484.11 C 608.69 503.23 603.58 522.97 596.21 541.94 C 594.42 546.33 593.13 550.97 593.45 555.76 C 605.95 531.89 610.04 504.17 620.42 479.20 C 618.61 480.59 616.37 481.80 615.64 484.11 Z" />
        <path fill="#555555" opacity="0.06" d=" M 209.25 393.42 C 213.82 393.36 208.33 397.94 209.25 393.42 Z" />
        <path fill="#555555" opacity="0.06" d=" M 125.16 393.71 C 125.73 401.75 117.83 394.37 125.16 393.71 Z" />
        <path fill="#555555" opacity="0.06" d=" M 100.17 400.15 C 105.20 401.77 96.17 404.74 100.17 400.15 Z" />
        <path fill="#555555" opacity="0.06" d=" M 106.33 416.03 C 111.51 415.93 104.15 421.92 106.33 416.03 Z" />
        <path fill="#555555" opacity="0.06" d=" M 626.00 436.08 C 622.20 432.11 621.92 426.11 626.00 422.23 L 626.00 436.08 Z" />
        <path fill="#555555" opacity="0.06" d=" M 327.09 449.34 C 347.56 439.83 370.26 437.78 392.09 433.16 C 395.07 434.97 396.74 438.37 399.12 440.90 C 401.38 440.88 403.65 440.86 405.93 440.86 C 407.78 444.94 408.50 449.38 408.11 453.85 C 407.40 454.06 405.97 454.47 405.26 454.68 C 405.93 482.17 407.69 509.60 408.06 537.09 C 394.76 546.78 375.73 551.95 359.83 547.31 C 347.11 524.15 337.79 499.00 327.84 474.49 C 326.25 474.73 324.65 474.96 323.06 475.18 C 321.19 471.16 319.90 466.91 318.86 462.61 C 321.24 461.28 323.67 460.05 326.16 458.93 C 326.58 455.74 326.88 452.54 327.09 449.34 M 363.90 442.88 C 366.43 441.91 369.02 441.06 371.56 440.09 C 357.62 441.64 343.42 444.62 330.87 451.15 C 330.63 452.97 330.40 454.79 330.16 456.61 C 351.25 448.50 373.94 445.98 395.97 441.48 C 394.71 439.54 393.41 437.62 392.08 435.74 C 382.34 436.78 373.80 442.35 363.90 442.88 M 396.61 444.93 C 397.45 445.11 399.12 445.48 399.96 445.66 C 390.92 448.43 381.48 449.48 372.24 451.36 C 355.05 450.59 339.11 458.75 323.25 464.36 C 323.94 466.97 324.86 469.52 326.09 471.94 C 351.65 461.41 379.25 458.40 406.06 452.60 C 405.96 449.34 405.43 446.12 404.57 442.98 C 401.86 443.38 399.20 444.07 396.61 444.93 M 332.50 474.90 C 343.57 497.46 351.47 521.58 363.10 543.82 C 377.25 545.08 396.15 543.47 404.50 530.46 C 405.28 506.31 402.83 481.99 402.94 457.75 C 378.92 460.90 355.99 469.20 332.50 474.90 Z" />
        <path fill="#555555" opacity="0.06" d=" M 191.92 476.98 C 196.40 453.71 221.50 439.57 243.99 440.92 C 265.13 439.47 286.07 455.26 289.92 476.16 C 290.19 492.92 290.36 509.80 289.60 526.52 C 280.61 547.47 254.15 555.59 233.05 550.78 C 225.24 550.83 221.12 544.16 221.87 536.94 C 223.54 535.46 225.26 533.82 225.11 531.40 C 224.07 530.80 223.03 530.20 221.99 529.61 C 221.86 526.71 221.73 523.82 221.54 520.94 C 212.71 522.84 202.99 535.09 195.15 524.86 C 190.43 509.58 190.16 492.82 191.92 476.98 M 195.27 478.07 C 194.80 483.10 195.67 490.96 200.94 492.85 C 215.09 486.68 227.74 476.96 243.10 473.72 C 238.71 486.09 232.00 497.50 226.82 509.54 C 225.45 513.13 227.54 517.44 231.02 518.92 C 254.99 527.56 283.38 510.22 286.93 485.05 C 288.74 471.65 280.84 458.90 270.18 451.42 C 270.39 452.56 270.60 453.70 270.82 454.86 C 248.43 431.08 201.00 446.15 195.27 478.07 M 239.03 475.83 C 233.82 482.24 224.02 484.69 216.82 489.25 C 216.94 491.14 217.02 493.03 217.07 494.93 C 216.31 494.97 214.79 495.07 214.03 495.11 C 213.47 493.84 212.93 492.58 212.39 491.31 C 208.35 493.10 204.11 494.39 200.00 495.99 C 202.09 505.67 204.12 515.39 204.22 525.34 C 210.14 522.82 215.73 519.54 221.26 516.31 C 221.40 508.97 230.08 504.24 227.97 496.11 C 231.35 494.05 233.65 490.86 234.78 487.09 C 233.91 485.35 233.19 483.54 232.64 481.69 C 234.01 481.86 235.35 482.22 236.56 482.93 C 237.02 480.28 238.33 477.96 240.68 476.55 C 240.13 476.29 239.58 476.05 239.03 475.83 M 194.31 496.18 C 194.20 502.17 195.53 508.04 195.91 514.01 C 201.19 509.80 196.69 502.12 196.73 496.44 C 196.13 496.38 194.91 496.24 194.31 496.18 M 225.02 522.62 C 223.43 527.34 230.43 530.73 227.15 535.23 C 224.54 538.29 225.94 542.28 226.26 545.85 C 229.08 546.54 231.94 547.01 234.84 547.30 C 233.50 546.50 232.18 545.73 230.85 544.95 C 235.59 545.77 240.39 546.23 245.20 546.45 C 245.28 546.86 245.43 547.69 245.51 548.11 C 261.99 547.88 279.72 540.15 287.68 525.09 C 288.07 516.40 287.90 507.65 287.89 498.93 C 273.69 517.32 248.41 533.63 225.02 522.62 Z" />
        <path fill="#555555" opacity="0.06" d=" M 223.58 448.92 C 233.98 443.92 246.44 443.34 257.46 446.55 C 246.14 447.00 234.66 445.71 223.58 448.92 Z" />
        <path fill="#555555" opacity="0.06" d=" M 624.17 470.73 C 611.48 468.58 615.99 452.22 626.00 449.35 L 626.00 453.95 C 620.65 456.77 615.46 463.20 622.25 467.79 C 620.91 463.80 622.65 460.40 626.00 458.15 L 626.00 460.18 C 624.64 463.53 624.20 467.13 624.17 470.73 Z" />
        <path fill="#555555" opacity="0.06" d=" M 359.38 453.14 C 363.41 455.73 351.73 454.96 359.38 453.14 Z" />
        <path fill="#555555" opacity="0.06" d=" M 71.23 467.22 C 81.57 463.41 91.46 469.27 100.61 473.38 C 114.29 479.51 129.83 465.85 142.67 475.15 C 157.56 486.98 147.85 507.36 156.34 522.06 C 166.56 548.87 140.45 578.60 113.03 576.14 C 100.65 575.97 91.41 565.89 86.64 555.33 C 82.16 545.40 68.58 552.20 62.67 544.12 C 57.46 537.54 60.59 528.34 56.66 521.23 C 53.18 514.80 47.70 509.29 46.06 501.97 C 43.19 486.03 56.67 471.37 71.23 467.22 M 75.52 468.80 C 63.12 471.69 51.39 481.78 49.97 494.94 C 48.79 506.08 60.54 512.69 61.54 523.33 C 62.42 530.73 62.03 540.47 69.62 544.57 C 74.94 547.89 84.30 543.68 86.93 550.92 C 92.42 561.37 101.14 573.12 114.35 572.51 C 133.12 570.45 151.63 555.95 155.31 536.95 C 156.81 525.16 147.09 515.01 149.76 503.06 C 151.80 490.84 144.99 472.23 129.99 474.02 C 120.16 475.37 110.00 479.09 100.09 476.04 C 92.21 472.85 84.47 467.32 75.52 468.80 Z" />
        <path fill="#555555" opacity="0.06" d=" M 101.78 479.50 C 105.92 479.28 110.04 478.90 114.15 478.32 C 110.35 480.37 105.91 480.16 101.78 479.50 Z" />
        <path fill="#555555" opacity="0.06" d=" M 146.13 486.77 C 148.10 490.31 149.17 494.30 148.88 498.38 C 147.66 494.58 146.98 490.65 146.13 486.77 Z" />
        <path fill="#555555" opacity="0.06" d=" M 273.05 505.29 C 277.31 499.92 281.13 494.26 283.97 487.99 C 282.22 494.63 279.20 501.64 273.05 505.29 Z" />
        <path fill="#555555" opacity="0.06" d=" M 222.78 493.34 C 221.82 488.47 226.04 488.95 226.41 493.16 C 225.50 493.21 223.69 493.29 222.78 493.34 Z" />
        <path fill="#555555" opacity="0.06" d=" M 103.23 493.24 C 119.71 486.92 137.24 507.13 128.79 522.52 C 122.84 538.32 96.72 548.78 86.55 531.43 C 75.82 517.15 88.47 498.11 103.23 493.24 M 89.98 508.12 C 89.73 517.89 94.48 529.66 105.24 531.63 C 105.84 532.70 106.44 533.77 107.05 534.85 C 107.12 533.87 107.26 531.89 107.33 530.90 C 107.92 532.32 108.50 533.75 109.09 535.19 C 115.69 534.35 121.12 530.07 124.82 524.73 C 124.34 524.34 123.38 523.55 122.90 523.15 C 123.64 523.04 125.13 522.83 125.88 522.72 C 131.52 513.00 126.06 499.30 115.52 495.69 C 105.36 492.55 94.20 498.66 89.98 508.12 Z" />
        <path fill="#555555" opacity="0.06" d=" M 379.72 493.89 C 385.03 494.73 388.02 499.74 389.12 504.57 C 385.29 501.93 383.68 496.77 379.72 493.89 Z" />
        <path fill="#555555" opacity="0.06" d=" M 366.30 514.67 C 359.35 511.27 360.53 499.22 367.13 495.89 C 362.64 501.48 363.01 508.60 366.30 514.67 Z" />
        <path fill="#555555" opacity="0.06" d=" M 369.86 496.64 C 382.96 490.75 390.59 507.45 385.92 517.92 C 387.05 517.20 388.19 516.48 389.35 515.80 C 389.36 519.31 385.98 519.82 383.49 521.03 C 371.13 522.25 359.30 506.05 369.86 496.64 M 374.47 497.01 C 372.62 505.33 382.62 507.13 384.94 513.87 C 386.27 506.72 382.91 497.15 374.47 497.01 M 381.94 518.09 C 379.53 510.77 369.84 506.87 371.29 498.38 C 363.25 506.20 372.32 518.45 381.94 518.09 Z" />
        <path fill="#555555" opacity="0.06" d=" M 203.79 499.86 C 205.53 499.89 207.27 499.94 209.01 499.98 C 212.07 508.08 200.46 507.57 203.79 499.86 Z" />
        <path fill="#555555" opacity="0.06" d=" M 129.57 501.25 C 132.59 502.39 133.85 505.60 134.24 508.57 C 131.73 506.86 130.52 504.01 129.57 501.25 Z" />
        <path fill="#555555" opacity="0.06" d=" M 219.19 508.51 C 215.37 505.69 217.35 501.40 222.00 503.05 C 222.63 505.51 221.24 507.35 219.19 508.51 Z" />
        <path fill="#555555" opacity="0.06" d=" M 152.96 532.06 C 149.58 524.85 146.20 517.08 147.37 508.91 C 147.70 516.99 151.79 524.17 152.96 532.06 Z" />
        <path fill="#555555" opacity="0.06" d=" M 210.91 514.59 C 214.95 514.36 215.57 520.02 210.91 518.34 C 210.91 517.40 210.91 515.53 210.91 514.59 Z" />
        <path fill="#555555" opacity="0.06" d=" M 119.51 539.40 C 125.58 534.27 130.74 528.08 133.24 520.18 C 134.14 528.87 127.37 536.68 119.51 539.40 Z" />
        <path fill="#555555" opacity="0.06" d=" M 375.40 520.61 C 378.87 521.06 382.30 521.72 385.76 522.27 C 382.98 525.64 377.63 523.59 375.40 520.61 Z" />
        <path fill="#555555" opacity="0.06" d=" M 65.54 523.78 C 66.70 524.81 67.40 526.21 68.03 527.62 C 67.37 527.64 66.05 527.68 65.39 527.70 C 65.43 526.38 65.48 525.08 65.54 523.78 Z" />
        <path fill="#555555" opacity="0.06" d=" M 92.03 554.99 C 93.88 556.98 95.47 559.21 96.59 561.70 C 94.21 560.13 92.94 557.59 92.03 554.99 Z" />
        <path fill="#555555" opacity="0.06" d=" M 458.01 559.73 C 471.74 559.79 486.88 552.90 499.41 561.44 C 511.01 568.64 523.98 581.34 520.36 596.18 C 512.74 604.35 509.05 614.99 507.91 626.00 L 505.37 626.00 C 507.15 617.95 508.51 609.72 512.10 602.22 C 499.84 604.36 487.13 601.61 475.05 604.92 C 466.17 607.55 466.49 618.67 464.29 626.00 L 461.71 626.00 C 461.79 619.11 464.21 612.60 465.78 605.97 C 466.49 598.85 478.15 604.89 478.24 597.24 C 476.18 588.42 466.56 584.13 459.61 579.44 C 460.26 580.67 460.94 581.92 461.61 583.17 C 449.14 576.20 437.11 565.48 422.07 565.81 C 415.83 568.70 421.28 576.93 421.18 582.02 C 421.64 596.93 404.53 611.28 413.72 626.00 L 409.05 626.00 C 401.36 609.39 419.01 593.74 417.84 576.95 C 417.27 572.66 412.61 566.80 417.61 563.64 C 430.22 557.87 444.55 559.16 458.01 559.73 M 493.09 560.89 C 497.87 564.09 502.27 567.80 506.97 571.11 C 503.97 565.99 498.56 562.79 493.09 560.89 M 518.10 589.18 C 514.33 593.76 522.07 594.28 518.10 589.18 Z" />
        <path fill="#555555" opacity="0.06" d=" M 263.32 600.48 C 273.87 593.84 276.45 574.61 289.88 571.90 C 296.98 585.00 277.23 593.41 270.95 603.22 C 280.59 607.40 294.90 613.05 293.15 626.00 L 285.95 626.00 C 287.14 615.05 274.89 610.55 266.80 606.81 C 262.76 610.53 262.57 616.03 263.19 621.13 C 269.34 619.82 278.09 616.51 279.01 626.00 L 256.75 626.00 C 260.91 618.45 260.10 608.30 268.07 603.08 C 275.33 593.71 289.48 587.30 290.16 574.52 C 274.29 583.39 270.31 606.36 254.04 615.21 C 248.07 614.72 242.53 617.28 239.12 622.20 C 243.96 617.43 250.44 616.01 257.04 616.16 C 257.78 619.60 257.17 623.11 255.13 626.00 L 252.88 626.00 C 253.71 624.55 254.55 623.10 255.39 621.67 C 252.21 616.49 245.36 619.89 241.75 622.84 C 242.14 623.18 242.93 623.87 243.32 624.21 C 244.80 624.10 246.28 624.01 247.76 623.93 C 248.39 624.45 249.66 625.48 250.29 626.00 L 243.11 626.00 C 239.73 622.49 234.74 621.66 231.64 626.00 L 173.85 626.00 C 179.35 621.27 187.81 622.38 192.59 616.63 C 194.63 614.03 197.66 612.76 200.83 612.16 C 200.94 612.78 201.15 614.02 201.25 614.65 C 196.39 614.72 193.66 618.54 195.12 623.09 C 194.24 614.37 204.73 615.20 204.13 623.33 C 205.51 620.04 204.75 616.67 201.55 614.78 C 202.09 614.46 202.62 614.15 203.16 613.84 C 212.80 617.09 222.78 612.04 232.59 614.11 C 242.53 613.90 255.45 615.36 261.30 605.30 C 231.59 598.18 198.71 598.60 170.71 611.84 C 165.74 614.33 157.50 620.09 163.13 626.00 L 151.98 626.00 C 151.51 616.95 158.83 610.68 166.34 607.26 C 196.34 593.19 231.67 590.38 263.32 600.48 Z" />
        <path fill="#555555" opacity="0.06" d=" M 0.00 577.07 C 22.55 574.86 47.98 578.84 64.33 595.76 C 69.99 604.33 77.12 615.65 71.95 626.00 L 66.09 626.00 C 75.96 617.81 67.91 604.81 62.45 596.55 C 46.32 580.77 21.72 576.61 0.00 579.17 L 0.00 577.07 Z" />
        <path fill="#555555" opacity="0.06" d=" M 570.75 626.00 C 568.33 596.96 600.85 579.55 626.00 577.17 L 626.00 578.49 C 602.11 582.25 572.68 597.99 574.62 626.00 L 570.75 626.00 Z" />
        <path fill="#555555" opacity="0.06" d=" M 435.06 579.09 C 439.60 578.04 434.03 583.81 435.06 579.09 Z" />
        <path fill="#555555" opacity="0.06" d=" M 13.93 585.25 C 8.26 578.77 20.28 579.87 13.93 585.25 Z" />
        <path fill="#555555" opacity="0.06" d=" M 1.02 581.92 C 1.78 581.95 3.29 582.01 4.04 582.03 C 4.05 582.76 4.08 584.20 4.10 584.93 C 2.73 585.89 1.35 586.84 0.00 587.85 L 0.00 584.48 C 0.26 583.84 0.77 582.56 1.02 581.92 Z" />
        <path fill="#555555" opacity="0.06" d=" M 25.11 584.99 C 36.12 585.56 21.19 593.03 25.11 584.99 M 26.30 586.27 C 26.81 586.77 26.81 586.77 26.30 586.27 Z" />
        <path fill="#555555" opacity="0.06" d=" M 602.58 591.46 C 602.65 589.09 602.93 585.36 606.21 585.64 C 606.74 588.46 604.97 590.34 602.58 591.46 Z" />
        <path fill="#555555" opacity="0.06" d=" M 614.00 587.25 C 614.77 587.02 616.32 586.58 617.09 586.36 C 617.26 588.52 617.42 590.70 617.56 592.88 C 620.39 592.31 623.21 591.73 626.00 590.96 L 626.00 593.89 C 618.60 595.32 612.06 599.12 605.01 601.56 C 608.05 597.89 612.29 595.63 616.53 593.62 C 614.77 591.90 613.96 589.67 614.00 587.25 Z" />
        <path fill="#555555" opacity="0.06" d=" M 44.98 588.94 C 45.49 589.19 46.52 589.67 47.04 589.91 C 47.03 591.46 47.01 593.02 47.00 594.59 C 46.17 594.53 44.51 594.40 43.68 594.34 C 43.96 592.50 44.38 590.70 44.98 588.94 Z" />
        <path fill="#555555" opacity="0.06" d=" M 0.00 590.76 C 3.38 590.86 6.94 590.87 9.82 592.91 C 6.59 593.61 3.29 593.93 0.00 594.20 L 0.00 590.76 Z" />
        <path fill="#555555" opacity="0.06" d=" M 18.40 592.83 C 22.82 588.44 35.23 591.66 35.97 599.04 C 30.61 595.72 24.88 592.79 18.40 592.83 Z" />
        <path fill="#555555" opacity="0.06" d=" M 449.21 592.14 C 453.81 591.10 448.18 596.80 449.21 592.14 Z" />
        <path fill="#555555" opacity="0.06" d=" M 431.17 593.20 C 435.78 592.15 430.21 597.85 431.17 593.20 Z" />
        <path fill="#555555" opacity="0.06" d=" M 599.99 600.32 C 589.09 596.74 606.95 593.58 599.99 600.32 M 598.30 597.12 C 598.52 600.41 601.26 595.54 598.30 597.12 Z" />
        <path fill="#555555" opacity="0.06" d=" M 418.21 597.56 C 423.35 596.67 417.83 602.55 418.21 597.56 Z" />
        <path fill="#555555" opacity="0.06" d=" M 586.69 598.29 C 590.24 597.97 590.72 604.80 586.96 604.22 C 586.84 602.24 586.75 600.26 586.69 598.29 Z" />
        <path fill="#555555" opacity="0.06" d=" M 423.97 602.45 C 424.64 601.60 425.31 600.75 425.98 599.91 C 426.55 601.22 427.13 602.53 427.71 603.84 C 426.46 603.38 425.21 602.90 423.97 602.45 Z" />
        <path fill="#555555" opacity="0.06" d=" M 459.96 621.45 C 460.22 613.05 460.91 597.73 473.20 600.26 C 460.75 599.74 463.23 613.65 459.96 621.45 Z" />
        <path fill="#555555" opacity="0.06" d=" M 41.12 601.15 C 41.91 601.08 43.51 600.93 44.30 600.86 C 44.43 603.15 43.68 605.65 40.93 605.68 C 40.98 604.16 41.05 602.65 41.12 601.15 Z" />
        <path fill="#555555" opacity="0.06" d=" M 36.83 600.77 C 44.00 608.50 37.82 620.39 30.80 626.00 L 28.97 626.00 C 24.50 614.43 9.64 617.11 0.00 619.01 L 0.00 609.52 C 4.92 608.53 12.79 600.76 14.18 609.70 C 15.59 607.11 17.41 604.71 20.25 603.65 C 22.86 610.76 30.73 609.95 36.87 610.86 C 36.83 607.49 36.77 604.13 36.83 600.77 M 10.08 610.56 C 8.02 616.21 15.05 611.99 10.08 610.56 M 15.13 613.71 C 16.33 613.66 17.52 613.61 18.71 613.59 C 18.84 612.33 18.99 611.07 19.13 609.82 C 18.08 611.39 16.78 612.77 15.13 613.71 Z" />
        <path fill="#555555" opacity="0.06" d=" M 53.86 604.98 C 55.87 602.63 58.77 602.63 61.30 604.14 C 60.09 606.63 57.41 607.12 54.92 607.29 C 54.65 606.71 54.12 605.55 53.86 604.98 Z" />
        <path fill="#555555" opacity="0.06" d=" M 446.21 608.29 C 450.82 607.24 445.16 612.93 446.21 608.29 Z" />
        <path fill="#555555" opacity="0.06" d=" M 599.91 607.41 C 601.88 611.01 603.69 614.70 605.70 618.28 C 613.38 616.06 616.40 605.71 626.00 608.61 L 626.00 618.06 C 622.62 620.33 618.77 622.25 616.77 626.00 L 610.43 626.00 C 603.92 622.28 599.39 615.03 599.91 607.41 Z" />
        <path fill="#555555" opacity="0.06" d=" M 44.51 618.37 C 44.07 608.43 53.69 616.79 44.51 618.37 Z" />
        <path fill="#555555" opacity="0.06" d=" M 599.11 613.69 C 601.65 623.08 592.06 616.33 599.11 613.69 Z" />
        <path fill="#555555" opacity="0.06" d=" M 419.27 617.22 C 424.67 617.13 417.40 622.86 419.27 617.22 Z" />
        <path fill="#555555" opacity="0.06" d=" M 581.03 617.88 C 582.58 617.78 584.13 617.69 585.69 617.62 C 585.91 621.08 583.60 624.31 579.94 624.21 C 579.92 622.04 580.37 619.93 581.03 617.88 M 582.34 619.21 C 578.57 624.30 586.71 619.77 582.34 619.21 Z" />
        <path fill="#555555" opacity="0.06" d=" M 445.41 626.00 C 443.17 622.37 449.16 622.26 446.98 626.00 L 445.41 626.00 Z" />
        <path fill="#555555" opacity="0.06" d=" M 454.71 626.00 C 452.09 623.42 456.47 622.74 455.38 626.00 L 454.71 626.00 Z" />
        <path fill="#555555" opacity="0.06" d=" M 37.51 626.00 C 35.60 623.10 40.07 623.30 40.07 626.00 L 37.51 626.00 Z" />
        <path fill="#555555" opacity="0.06" d=" M 49.81 626.00 C 50.08 624.39 50.66 624.39 51.54 626.00 L 49.81 626.00 Z" />
        <path fill="#555555" opacity="0.06" d=" M 234.97 626.00 C 235.63 624.01 238.17 624.20 238.94 626.00 L 234.97 626.00 Z" />
    </g>
</svg>